<?xml version="1.0" encoding="utf-8"?>
<!-- Generator: Adobe Illustrator 25.4.1, SVG Export Plug-In . SVG Version: 6.00 Build 0)  -->
<svg version="1.1" id="Capa_1" xmlns="http://www.w3.org/2000/svg" xmlns:xlink="http://www.w3.org/1999/xlink" x="0px" y="0px"
	 viewBox="0 0 13628.786 3275.273" style="enable-background:new 0 0 13628.786 3275.273;" xml:space="preserve">
<style type="text/css">
	.st0{fill:url(#SVGID_00000095337044325193252940000014057894072346064317_);}
	.st1{clip-path:url(#SVGID_00000027567838915092311330000009605474718176755357_);}
	.st2{fill:url(#SVGID_00000115506425493596996270000011550439543000540322_);}
	
		.st3{clip-path:url(#SVGID_00000064331959185837072890000003607607799677563023_);fill:url(#SVGID_00000015353656185085237540000007176770089924075929_);}
	.st4{fill:url(#SVGID_00000142141655118891706090000001091039977296309435_);}
	.st5{fill:url(#SVGID_00000142862868694012680720000006996178822400987808_);}
	.st6{fill:url(#SVGID_00000086651950008571791430000007758115448931154085_);}
	.st7{fill:url(#SVGID_00000026164327282929430530000005122223627591735174_);}
	.st8{fill:#BAC5D0;}
</style>
<g>
	<g>
		<g>
			<g>
				
					<linearGradient id="SVGID_00000041268404465061447620000016535320907925693879_" gradientUnits="userSpaceOnUse" x1="4835.2651" y1="6365.5029" x2="4835.2651" y2="5211.4917" gradientTransform="matrix(1 0 0 -1 494 7470.8511)">
					<stop  offset="0" style="stop-color:#B8CDD9"/>
					<stop  offset="0.054" style="stop-color:#BED0DC"/>
					<stop  offset="0.2364" style="stop-color:#CCD8E3"/>
					<stop  offset="0.3863" style="stop-color:#CFDBE6"/>
					<stop  offset="0.5234" style="stop-color:#B5BFC8"/>
					<stop  offset="0.6885" style="stop-color:#9CA6AD"/>
					<stop  offset="0.7896" style="stop-color:#949DA4"/>
					<stop  offset="0.8899" style="stop-color:#ADB8C1"/>
					<stop  offset="1" style="stop-color:#CEDCE6"/>
				</linearGradient>
				
					<path id="SVGID_00000168805694121373832300000004681017760828851111_" style="fill:url(#SVGID_00000041268404465061447620000016535320907925693879_);" d="
					M9964.593,1801.249h-364.784l132.319-363.079l47.516-157.888h5.114l50.925,161.297L9964.593,1801.249z M9440.429,2242.313
					l106.964-293.616h471.746l105.259,293.616h191.767l-422.738-1119.919h-217.123l-422.526,1119.919H9440.429z M9053.486,2242.313
					V1122.394h-181.539v1119.919H9053.486z M8210.138,1665.308h-220.532v-388.435h220.532c156.184,0,234.169,64.988,234.169,195.176
					c0,64.562-19.177,112.93-57.743,145.104C8348.21,1649.327,8289.401,1665.308,8210.138,1665.308z M7989.605,2242.313v-422.527
					h249.51c121.026,0,216.91-30.896,287.65-92.474c70.741-61.578,106.111-146.808,106.111-255.263
					c0-108.455-35.37-193.898-106.111-256.115c-70.74-62.218-166.624-93.327-287.65-93.327h-431.049v1119.919h181.54V2242.313z
					 M7475.457,2242.313V1122.394h-181.539v1119.919H7475.457z M6467.615,2087.835h-213.713v-810.961h213.713
					c117.617,0,208.174,35.37,271.457,106.111c63.283,70.741,95.031,170.459,95.031,299.583c0,128.91-31.748,228.842-95.031,299.583
					C6675.789,2052.464,6585.232,2087.835,6467.615,2087.835z M6467.615,2242.313c176.426,0,313.433-48.581,410.594-145.956
					c97.375-97.375,145.956-235.234,145.956-414.004s-48.581-316.629-145.956-414.004s-234.168-145.956-410.594-145.956h-395.252
					v1119.919C6072.363,2242.314,6467.615,2242.314,6467.615,2242.313z M4989.731,2242.313v-722.748l-6.818-190.062h1.705
					l108.668,207.108l432.754,705.916h215.418V1122.394h-167.903v722.748l6.819,190.062h-1.705l-110.372-208.6l-431.05-704.211
					h-213.713v1119.919H4989.731z M4579.137,2242.313V2086.13H3925.85v-332.396h491.989V1600.96H3925.85v-322.382h629.422v-156.184
					h-810.961v1119.919H4579.137z M3045.214,1643.361h-261.229v-366.488h261.229c73.51,0,128.484,14.915,164.493,44.959
					c36.223,30.043,54.334,76.068,54.334,138.285s-18.111,108.242-54.334,138.285
					C3173.698,1628.446,3118.725,1643.361,3045.214,1643.361z M2783.985,2242.313v-447.882h240.987l285.094,447.882h208.6
					l-303.631-468.338c75.854-22.586,134.237-60.726,175.573-114.634c41.336-53.695,62.005-120.813,62.005-201.142
					c0-105.259-35.157-187.505-105.259-246.953c-70.101-59.448-165.772-89.065-286.798-89.065H2604.15V2242.1h179.835V2242.313z
					 M2359.754,2242.313V2086.13h-653.286v-332.396h491.989V1600.96h-491.989v-322.382h629.422v-156.184h-810.961v1119.919H2359.754
					z M824.127,2259.359c88.213,0,165.985-13.211,233.317-39.845c67.331-26.634,119.535-64.775,157.036-114.634
					c37.288-49.859,56.039-107.389,56.039-173.016c0-61.152-13.637-112.29-40.697-153.627
					c-27.061-41.337-70.315-75.854-129.762-103.554s-139.351-50.712-240.135-68.823c-107.39-19.177-182.179-42.189-223.941-68.823
					c-41.763-26.634-62.857-62.431-62.857-107.816c0-48.581,21.521-88.426,64.562-119.535
					c43.041-31.109,103.554-46.663,181.539-46.663c79.264,0,142.547,15.341,190.062,45.811
					c47.516,30.47,87.147,79.69,118.682,147.661l137.433-123.796c-49.859-76.92-111.225-134.024-184.096-171.312
					c-72.871-37.288-160.871-56.039-263.786-56.039c-88.213,0-165.346,15.341-231.612,45.811s-116.765,71.806-151.922,123.796
					c-35.157,51.99-52.629,109.733-52.629,173.016c0,59.874,13.85,110.799,41.55,152.774c27.7,41.763,72.019,76.92,133.171,105.259
					c61.152,28.339,143.186,51.99,246.101,71.167c102.915,19.177,175.147,41.336,216.271,66.266
					c41.336,24.93,62.005,57.743,62.005,98.44c0,50.925-23.012,90.131-68.823,117.83c-45.811,27.7-108.881,41.549-189.21,41.549
					c-84.804,0-155.757-15.767-212.861-47.516c-57.104-31.748-103.767-81.394-139.99-149.365l-127.205,127.205
					C436.331,2183.505,596.776,2259.359,824.127,2259.359z"/>
			</g>
			<g>
				<defs>
					<path id="SVGID_1_" d="M9964.593,1801.249h-364.784l132.319-363.079l47.516-157.888h5.114l50.925,161.297L9964.593,1801.249z
						 M9440.429,2242.313l106.964-293.616h471.746l105.259,293.616h191.767l-422.738-1119.919h-217.123l-422.526,1119.919H9440.429z
						 M9053.486,2242.313V1122.394h-181.539v1119.919H9053.486z M8210.138,1665.308h-220.532v-388.435h220.532
						c156.184,0,234.169,64.988,234.169,195.176c0,64.562-19.177,112.93-57.743,145.104
						C8348.21,1649.327,8289.401,1665.308,8210.138,1665.308z M7989.605,2242.313v-422.527h249.51
						c121.026,0,216.91-30.896,287.65-92.474c70.741-61.578,106.111-146.808,106.111-255.263
						c0-108.455-35.37-193.898-106.111-256.115c-70.74-62.218-166.624-93.327-287.65-93.327h-431.049v1119.919h181.54V2242.313z
						 M7475.457,2242.313V1122.394h-181.539v1119.919H7475.457z M6467.615,2087.835h-213.713v-810.961h213.713
						c117.617,0,208.174,35.37,271.457,106.111c63.283,70.741,95.031,170.459,95.031,299.583
						c0,128.91-31.748,228.842-95.031,299.583C6675.789,2052.464,6585.232,2087.835,6467.615,2087.835z M6467.615,2242.313
						c176.426,0,313.433-48.581,410.594-145.956c97.375-97.375,145.956-235.234,145.956-414.004s-48.581-316.629-145.956-414.004
						s-234.168-145.956-410.594-145.956h-395.252v1119.919C6072.363,2242.314,6467.615,2242.314,6467.615,2242.313z
						 M4989.731,2242.313v-722.748l-6.818-190.062h1.705l108.668,207.108l432.754,705.916h215.418V1122.394h-167.903v722.748
						l6.819,190.062h-1.705l-110.372-208.6l-431.05-704.211h-213.713v1119.919H4989.731z M4579.137,2242.313V2086.13H3925.85
						v-332.396h491.989V1600.96H3925.85v-322.382h629.422v-156.184h-810.961v1119.919H4579.137z M3045.214,1643.361h-261.229
						v-366.488h261.229c73.51,0,128.484,14.915,164.493,44.959c36.223,30.043,54.334,76.068,54.334,138.285
						s-18.111,108.242-54.334,138.285C3173.698,1628.446,3118.725,1643.361,3045.214,1643.361z M2783.985,2242.313v-447.882h240.987
						l285.094,447.882h208.6l-303.631-468.338c75.854-22.586,134.237-60.726,175.573-114.634
						c41.336-53.695,62.005-120.813,62.005-201.142c0-105.259-35.157-187.505-105.259-246.953
						c-70.101-59.448-165.772-89.065-286.798-89.065H2604.15V2242.1h179.835V2242.313z M2359.754,2242.313V2086.13h-653.286
						v-332.396h491.989V1600.96h-491.989v-322.382h629.422v-156.184h-810.961v1119.919H2359.754z M824.127,2259.359
						c88.213,0,165.985-13.211,233.317-39.845c67.331-26.634,119.535-64.775,157.036-114.634
						c37.288-49.859,56.039-107.389,56.039-173.016c0-61.152-13.637-112.29-40.697-153.627
						c-27.061-41.337-70.315-75.854-129.762-103.554s-139.351-50.712-240.135-68.823c-107.39-19.177-182.179-42.189-223.941-68.823
						c-41.763-26.634-62.857-62.431-62.857-107.816c0-48.581,21.521-88.426,64.562-119.535
						c43.041-31.109,103.554-46.663,181.539-46.663c79.264,0,142.547,15.341,190.062,45.811
						c47.516,30.47,87.147,79.69,118.682,147.661l137.433-123.796c-49.859-76.92-111.225-134.024-184.096-171.312
						c-72.871-37.288-160.871-56.039-263.786-56.039c-88.213,0-165.346,15.341-231.612,45.811s-116.765,71.806-151.922,123.796
						c-35.157,51.99-52.629,109.733-52.629,173.016c0,59.874,13.85,110.799,41.55,152.774c27.7,41.763,72.019,76.92,133.171,105.259
						c61.152,28.339,143.186,51.99,246.101,71.167c102.915,19.177,175.147,41.336,216.271,66.266
						c41.336,24.93,62.005,57.743,62.005,98.44c0,50.925-23.012,90.131-68.823,117.83c-45.811,27.7-108.881,41.549-189.21,41.549
						c-84.804,0-155.757-15.767-212.861-47.516c-57.104-31.748-103.767-81.394-139.99-149.365l-127.205,127.205
						C436.331,2183.505,596.776,2259.359,824.127,2259.359z"/>
				</defs>
				<clipPath id="SVGID_00000072261824028369230420000011508598865181779867_">
					<use xlink:href="#SVGID_1_"  style="overflow:visible;"/>
				</clipPath>
				<g style="clip-path:url(#SVGID_00000072261824028369230420000011508598865181779867_);">
					<g>
						
							<linearGradient id="SVGID_00000052068099078416189150000013409979498568281004_" gradientUnits="userSpaceOnUse" x1="4387.2769" y1="13406.9736" x2="4387.2769" y2="-1863.8585" gradientTransform="matrix(1 0 0 -1 494 7470.8511)">
							<stop  offset="0" style="stop-color:#B8CDD9"/>
							<stop  offset="0.054" style="stop-color:#BED0DC"/>
							<stop  offset="0.2364" style="stop-color:#CCD8E3"/>
							<stop  offset="0.3863" style="stop-color:#CFDBE6"/>
							<stop  offset="0.5234" style="stop-color:#B5BFC8"/>
							<stop  offset="0.6885" style="stop-color:#9CA6AD"/>
							<stop  offset="0.7896" style="stop-color:#949DA4"/>
							<stop  offset="0.8899" style="stop-color:#ADB8C1"/>
							<stop  offset="1" style="stop-color:#CEDCE6"/>
						</linearGradient>
						
							<rect id="SVGID_00000125579044629949336540000006650793992347809964_" x="-8692.841" y="-5936.123" style="fill:url(#SVGID_00000052068099078416189150000013409979498568281004_);" width="27148.236" height="15270.832"/>
					</g>
					<g>
						<defs>
							
								<rect id="SVGID_00000003100300701563363040000007135724717427615165_" x="-8692.841" y="-5936.123" width="27148.236" height="15270.832"/>
						</defs>
						<clipPath id="SVGID_00000034785294068018949480000015713862366356371380_">
							<use xlink:href="#SVGID_00000003100300701563363040000007135724717427615165_"  style="overflow:visible;"/>
						</clipPath>
						
							<linearGradient id="SVGID_00000098178593070957516830000004342124187635513749_" gradientUnits="userSpaceOnUse" x1="4835.0522" y1="6471.4009" x2="4835.0522" y2="5105.5938" gradientTransform="matrix(1 0 0 -1 494 7470.8511)">
							<stop  offset="0" style="stop-color:#B8CDD9"/>
							<stop  offset="0.054" style="stop-color:#BED0DC"/>
							<stop  offset="0.2364" style="stop-color:#CCD8E3"/>
							<stop  offset="0.3863" style="stop-color:#CFDBE6"/>
							<stop  offset="0.5234" style="stop-color:#B5BFC8"/>
							<stop  offset="0.6885" style="stop-color:#9CA6AD"/>
							<stop  offset="0.7896" style="stop-color:#949DA4"/>
							<stop  offset="0.8899" style="stop-color:#ADB8C1"/>
							<stop  offset="1" style="stop-color:#CEDCE6"/>
						</linearGradient>
						
							<rect x="236.254" y="999.45" style="clip-path:url(#SVGID_00000034785294068018949480000015713862366356371380_);fill:url(#SVGID_00000098178593070957516830000004342124187635513749_);" width="10185.596" height="1365.807"/>
					</g>
				</g>
			</g>
		</g>
		<g>
			
				<linearGradient id="SVGID_00000047044954049780493360000007645604420592429964_" gradientUnits="userSpaceOnUse" x1="10852.167" y1="5082.3687" x2="12106.3223" y2="5082.3687" gradientTransform="matrix(1 0 0 -1 494 7470.8511)">
				<stop  offset="0" style="stop-color:#B8CDD9"/>
				<stop  offset="0.054" style="stop-color:#BED0DC"/>
				<stop  offset="0.2364" style="stop-color:#CCD8E3"/>
				<stop  offset="0.3863" style="stop-color:#CFDBE6"/>
				<stop  offset="0.5234" style="stop-color:#B5BFC8"/>
				<stop  offset="0.6885" style="stop-color:#9CA6AD"/>
				<stop  offset="0.7896" style="stop-color:#949DA4"/>
				<stop  offset="0.8899" style="stop-color:#ADB8C1"/>
				<stop  offset="1" style="stop-color:#CEDCE6"/>
			</linearGradient>
			<path style="fill:url(#SVGID_00000047044954049780493360000007645604420592429964_);" d="M11973.244,1781.433l-513.083,519.049
				c-73.511,79.903-113.994,183.457-113.994,291.912s40.484,212.009,113.994,291.912c64.987,70.741,157.462,111.225,253.346,111.225
				c65.841,0,129.975-18.751,185.8-54.547c44.959-28.765,102.916-28.765,147.874,0c55.612,35.583,119.961,54.547,185.588,54.547
				c0,0,0,0,0.214,0c95.883,0,188.358-40.484,253.346-111.225c73.511-79.903,113.994-183.457,113.994-291.912
				c0-108.455-40.484-212.009-114.208-292.125L11973.244,1781.433z M12450.105,2851.067
				c-97.162,105.685-255.689,126.14-376.503,48.794c-29.83-19.177-64.562-29.191-100.358-29.191
				c-35.796,0-70.527,10.014-100.358,29.191c-121.026,77.346-279.34,56.891-376.502-48.794
				c-135.515-147.448-135.729-369.684-0.427-516.919l477.499-483.04l477.074,482.827
				C12585.833,2481.383,12585.62,2703.833,12450.105,2851.067z"/>
			
				<linearGradient id="SVGID_00000000904892819953206480000009957466023020773015_" gradientUnits="userSpaceOnUse" x1="10852.167" y1="6494.7314" x2="12106.1094" y2="6494.7314" gradientTransform="matrix(1 0 0 -1 494 7470.8511)">
				<stop  offset="0" style="stop-color:#B8CDD9"/>
				<stop  offset="0.054" style="stop-color:#BED0DC"/>
				<stop  offset="0.2364" style="stop-color:#CCD8E3"/>
				<stop  offset="0.3863" style="stop-color:#CFDBE6"/>
				<stop  offset="0.5234" style="stop-color:#B5BFC8"/>
				<stop  offset="0.6885" style="stop-color:#9CA6AD"/>
				<stop  offset="0.7896" style="stop-color:#949DA4"/>
				<stop  offset="0.8899" style="stop-color:#ADB8C1"/>
				<stop  offset="1" style="stop-color:#CEDCE6"/>
			</linearGradient>
			<path style="fill:url(#SVGID_00000000904892819953206480000009957466023020773015_);" d="M11973.031,1583.274l513.083-519.049
				c73.512-79.903,113.995-183.457,113.995-291.912s-40.485-212.009-113.995-291.912
				c-113.355-123.157-298.091-147.021-439.146-56.891c-44.959,28.765-102.915,28.765-147.874,0
				c-141.055-90.344-325.79-66.479-439.146,56.891c-73.511,79.903-113.782,183.457-113.782,291.912s40.484,212.009,114.207,292.125
				L11973.031,1583.274z M12450.105,513.641c135.515,147.448,135.728,369.684,0.426,516.919l-477.5,483.04l-477.287-483.04
				c-135.302-147.448-135.302-369.684,0.213-517.132c97.162-105.685,255.477-126.14,376.502-48.794
				c60.939,38.993,139.777,38.993,200.716,0C12194.416,387.501,12352.943,407.956,12450.105,513.641z"/>
			
				<linearGradient id="SVGID_00000176019974918682417040000017158390060839009203_" gradientUnits="userSpaceOnUse" x1="11578.1113" y1="5788.3906" x2="12792.4209" y2="5788.3906" gradientTransform="matrix(1 0 0 -1 494 7470.8511)">
				<stop  offset="0" style="stop-color:#B8CDD9"/>
				<stop  offset="0.054" style="stop-color:#BED0DC"/>
				<stop  offset="0.2364" style="stop-color:#CCD8E3"/>
				<stop  offset="0.3863" style="stop-color:#CFDBE6"/>
				<stop  offset="0.5234" style="stop-color:#B5BFC8"/>
				<stop  offset="0.6885" style="stop-color:#9CA6AD"/>
				<stop  offset="0.7896" style="stop-color:#949DA4"/>
				<stop  offset="0.8899" style="stop-color:#ADB8C1"/>
				<stop  offset="1" style="stop-color:#CEDCE6"/>
			</linearGradient>
			<path style="fill:url(#SVGID_00000176019974918682417040000017158390060839009203_);" d="M13231.875,1756.291
				c-28.765-44.959-28.765-102.915,0-147.874c90.344-141.055,66.479-325.791-56.891-439.146
				c-79.902-73.511-183.457-113.782-291.912-113.782s-212.009,40.484-292.125,114.208l-518.836,512.87l519.049,513.083
				c79.903,73.51,183.457,113.781,291.912,113.781s212.01-40.484,291.912-113.781
				C13298.354,2082.082,13322.219,1897.346,13231.875,1756.291z M13190.538,1782.712c77.347,121.026,56.891,279.341-48.793,376.503
				c-147.447,135.515-369.684,135.728-517.132,0.213l-483.04-477.287l482.826-477.074
				c147.447-135.515,369.897-135.302,517.346,0.213c105.686,97.162,126.14,255.689,48.793,376.503
				C13151.546,1642.935,13151.546,1721.773,13190.538,1782.712z"/>
			
				<linearGradient id="SVGID_00000084508169837791786280000000062688047391195550_" gradientUnits="userSpaceOnUse" x1="10165.8545" y1="5788.3906" x2="11380.1641" y2="5788.3906" gradientTransform="matrix(1 0 0 -1 494 7470.8511)">
				<stop  offset="0" style="stop-color:#B8CDD9"/>
				<stop  offset="0.054" style="stop-color:#BED0DC"/>
				<stop  offset="0.2364" style="stop-color:#CCD8E3"/>
				<stop  offset="0.3863" style="stop-color:#CFDBE6"/>
				<stop  offset="0.5234" style="stop-color:#B5BFC8"/>
				<stop  offset="0.6885" style="stop-color:#9CA6AD"/>
				<stop  offset="0.7896" style="stop-color:#949DA4"/>
				<stop  offset="0.8899" style="stop-color:#ADB8C1"/>
				<stop  offset="1" style="stop-color:#CEDCE6"/>
			</linearGradient>
			<path style="fill:url(#SVGID_00000084508169837791786280000000062688047391195550_);" d="M11874.164,1682.354l-519.049-513.083
				c-79.902-73.511-183.457-113.782-291.912-113.782s-212.009,40.484-291.912,113.782
				c-123.157,113.356-147.021,298.091-56.892,439.146c28.766,44.959,28.766,102.915,0,147.874
				c-90.343,141.055-66.479,325.791,56.892,439.146c79.903,73.511,183.457,113.995,291.912,113.995s212.01-40.484,292.126-114.208
				L11874.164,1682.354z M10755.524,1581.996c-77.346-121.026-56.892-279.341,48.794-376.716
				c71.38-65.627,163.215-101.849,258.673-101.849c95.457,0,187.292,36.01,258.246,101.423l483.039,477.5l-482.826,477.074
				c-71.379,65.627-163.214,101.636-258.459,101.636c-95.457,0-187.293-36.223-258.673-101.85
				c-105.685-97.162-126.14-255.689-48.794-376.502C10794.73,1721.773,10794.73,1642.935,10755.524,1581.996z"/>
		</g>
		<g>
			<path class="st8" d="M6668.757,2979.125V2640.55h113.568c47.729,0,85.017,16.194,111.651,48.794s40.058,72.445,40.058,119.535
				c0,47.729-12.997,88-38.992,121.026s-58.809,49.22-98.654,49.22H6668.757z M6711.159,2943.115h68.823
				c36.436,0,63.922-12.571,82.886-37.714c18.964-25.143,28.339-58.382,28.339-99.506c0-33.453-8.95-63.496-26.848-90.131
				s-46.024-40.058-84.165-40.058h-68.823v267.408H6711.159z"/>
			<path class="st8" d="M7622.905,2941.837v37.288h-219.041V2640.55h214.353v37.288h-171.951v107.603h136.367v34.518h-136.367
				v122.092h176.639V2941.837z"/>
			<path class="st8" d="M8288.549,2941.837v37.288h-199.864V2640.55h43.467v301.287H8288.549z"/>
			<path class="st8" d="M8929.051,2640.55h35.157v221.171c0,44.32-10.867,76.068-32.601,95.457
				c-21.733,19.39-50.285,28.978-85.443,28.978c-39.205,0-68.184-9.802-87.147-29.83c-18.963-20.029-28.338-51.351-28.338-94.605
				V2640.55h42.401v221.171c0,26.421,2.983,44.959,9.162,55.613c6.18,10.654,15.341,18.75,27.699,23.864s25.356,7.671,38.992,7.671
				c26.209,0,46.024-6.819,59.448-20.668c13.637-13.637,20.242-36.01,20.242-66.479V2640.55H8929.051z"/>
			<path class="st8" d="M9657.339,2640.55l-95.031,154.905l108.668,183.67h-47.941l-85.443-144.251l-88.853,144.251h-39.418
				l108.454-175.147l-96.522-163.428h47.303l74.15,125.075l76.067-125.075H9657.339z"/>
			<path class="st8" d="M10340.029,2941.837v37.288h-219.04V2640.55h214.353v37.288h-171.951v107.603h136.367v34.518h-136.367
				v122.092h176.639V2941.837z"/>
		</g>
	</g>
</g>
</svg>
