<?xml version="1.0" encoding="utf-8"?>
<!-- Generator: Adobe Illustrator 25.4.1, SVG Export Plug-In . SVG Version: 6.00 Build 0)  -->
<svg version="1.1" id="Capa_1" xmlns="http://www.w3.org/2000/svg" xmlns:xlink="http://www.w3.org/1999/xlink" x="0px" y="0px"
	 viewBox="0 0 522.894 173.617" style="enable-background:new 0 0 522.894 173.617;" xml:space="preserve">
<style type="text/css">
	.st0{fill:url(#SERENDIPIA_00000172407903213597715490000012424693568867468975_);}
	.st1{fill:url(#SVGID_1_);}
	.st2{fill:#F2F2F7;}
	.st3{opacity:0.8;fill:#F2F2F7;enable-background:new    ;}
</style>
<g>
	<g>
		
			<linearGradient id="SERENDIPIA_00000077314564299707173170000006279617449337485448_" gradientUnits="userSpaceOnUse" x1="-367.2749" y1="12087" x2="-367.2749" y2="12033.2695" gradientTransform="matrix(1 0 0 -1 494 12167.9473)">
			<stop  offset="0" style="stop-color:#B7CCD9"/>
			<stop  offset="0.054" style="stop-color:#BDCFDB"/>
			<stop  offset="0.2364" style="stop-color:#CAD7E2"/>
			<stop  offset="0.3863" style="stop-color:#CEDAE5"/>
			<stop  offset="0.52" style="stop-color:#B5BFC8"/>
			<stop  offset="0.6872" style="stop-color:#9DA6AD"/>
			<stop  offset="0.7896" style="stop-color:#949DA4"/>
			<stop  offset="0.8899" style="stop-color:#ACB7BF"/>
			<stop  offset="1" style="stop-color:#CCDBE5"/>
		</linearGradient>
		
			<path id="SERENDIPIA_00000159429087604421914500000017760494813028166040_" style="fill:url(#SERENDIPIA_00000077314564299707173170000006279617449337485448_);" d="
			M127.555,134.677c4.106,0,7.729-0.621,10.863-1.856c3.134-1.236,5.569-3.014,7.312-5.336c1.737-2.316,2.608-5.002,2.608-8.058
			c0-2.847-0.633-5.229-1.898-7.15s-3.277-3.527-6.046-4.823c-2.764-1.289-6.494-2.358-11.179-3.199
			c-5.002-0.895-8.482-1.964-10.433-3.199c-1.952-1.236-2.925-2.913-2.925-5.02c0-2.268,1.003-4.124,3.002-5.569
			c2-1.45,4.823-2.173,8.458-2.173c3.689,0,6.637,0.71,8.852,2.131c2.214,1.421,4.059,3.713,5.533,6.876l0,0l6.398-5.766
			c-2.316-3.581-5.175-6.243-8.571-7.98s-7.497-2.608-12.29-2.608c-4.106,0-7.706,0.71-10.785,2.131
			c-3.08,1.421-5.437,3.342-7.073,5.766c-1.635,2.423-2.447,5.109-2.447,8.058c0,2.793,0.645,5.163,1.934,7.115
			c1.289,1.952,3.36,3.581,6.201,4.9c2.847,1.319,6.667,2.423,11.46,3.319c4.793,0.895,8.153,1.922,10.075,3.08
			s2.883,2.686,2.883,4.584c0,2.37-1.068,4.202-3.199,5.491c-2.131,1.289-5.073,1.934-8.81,1.934c-3.951,0-7.258-0.74-9.92-2.214
			c-2.662-1.474-4.835-3.79-6.518-6.954l0,0l-5.927,5.933C109.482,131.144,116.966,134.677,127.555,134.677z"/>
		
			<linearGradient id="SVGID_1_" gradientUnits="userSpaceOnUse" x1="-311.4561" y1="12087.6387" x2="-311.4561" y2="12032.4043" gradientTransform="matrix(1 0 0 -1 494 12167.9473)">
			<stop  offset="0" style="stop-color:#B7CCD9"/>
			<stop  offset="0.054" style="stop-color:#BDCFDB"/>
			<stop  offset="0.2364" style="stop-color:#CAD7E2"/>
			<stop  offset="0.3863" style="stop-color:#CEDAE5"/>
			<stop  offset="0.52" style="stop-color:#B5BFC8"/>
			<stop  offset="0.6872" style="stop-color:#9DA6AD"/>
			<stop  offset="0.7896" style="stop-color:#949DA4"/>
			<stop  offset="0.8899" style="stop-color:#ACB7BF"/>
			<stop  offset="1" style="stop-color:#CCDBE5"/>
		</linearGradient>
		<path class="st1" d="M206.915,111.101c-1.236-1.928-1.236-4.423,0-6.345c3.993-6.237,2.937-14.408-2.513-19.422
			c-3.527-3.241-8.1-5.026-12.886-5.026s-9.359,1.785-12.904,5.044l-22.848,22.574l22.86,22.592c3.527,3.241,8.1,5.026,12.886,5.026
			s9.365-1.785,12.886-5.026C209.851,125.504,210.908,117.338,206.915,111.101z M202.772,87.107
			c4.584,4.22,5.473,11.096,2.113,16.348c-1.737,2.716-1.737,6.225,0,8.947c3.36,5.252,2.471,12.128-2.113,16.348
			c-6.41,5.897-16.08,5.903-22.496,0.018l-21.087-20.843l21.075-20.831C186.681,81.204,196.356,81.204,202.772,87.107z"/>
	</g>
</g>
<g>
	<path class="st2" d="M117.378,47.372c0,0.906-0.201,1.712-0.604,2.417c-0.403,0.705-0.982,1.234-1.762,1.611
		c-0.78,0.378-1.636,0.579-2.618,0.579h-0.277c-1.007,0-1.863-0.176-2.618-0.554c-0.755-0.378-1.309-0.931-1.712-1.611
		c-0.428-0.705-0.629-1.51-0.629-2.442v-9.415h1.964v9.365c0,0.856,0.302,1.561,0.906,2.064c0.604,0.503,1.359,0.78,2.291,0.78
		c0.957,0,1.712-0.252,2.266-0.78c0.554-0.503,0.831-1.208,0.831-2.064v-9.365h1.964V47.372z"/>
	<path class="st2" d="M131.249,37.956v13.821h-1.662l-6.772-10.12l-0.05,0.025v10.095h-1.787V37.956h1.712l6.696,9.994l0.05-0.025
		v-9.969H131.249z"/>
	<path class="st2" d="M147.94,38.485c0.629,0.352,1.133,0.831,1.485,1.435c0.352,0.604,0.529,1.309,0.529,2.064
		c0,0.755-0.176,1.46-0.529,2.064c-0.352,0.604-0.856,1.082-1.485,1.435c-0.629,0.352-1.334,0.529-2.115,0.529h-4.003v5.765h-1.964
		V37.956h5.966C146.605,37.956,147.31,38.133,147.94,38.485z M141.822,39.744v4.481h3.801c0.629,0,1.183-0.227,1.636-0.655
		c0.453-0.428,0.705-0.957,0.705-1.586c0-0.629-0.227-1.158-0.705-1.586c-0.453-0.428-1.007-0.655-1.636-0.655H141.822z"/>
	<path class="st2" d="M161.307,38.837c0.78,0.579,1.183,1.359,1.183,2.366c0,0.906-0.227,1.662-0.705,2.291
		c-0.478,0.629-1.057,1.007-1.762,1.158v0.101c0.655,0.252,1.183,0.705,1.586,1.334c0.428,0.629,0.629,1.385,0.629,2.266
		c0,0.73,0.05,1.284,0.126,1.662c0.076,0.378,0.176,0.629,0.327,0.78c0.126,0.151,0.327,0.252,0.579,0.352v0.579
		c-0.302,0.126-0.604,0.176-0.957,0.176c-0.655,0-1.158-0.201-1.51-0.579c-0.352-0.378-0.554-1.108-0.554-2.165
		c0-1.082-0.227-1.938-0.68-2.543s-1.007-0.906-1.687-0.906h-3.499v6.092h-1.964V37.956h5.891
		C159.52,37.956,160.527,38.258,161.307,38.837z M154.384,39.744v4.154h3.927c0.579,0,1.083-0.201,1.536-0.579
		c0.453-0.378,0.655-0.881,0.655-1.46v-0.076c0-0.579-0.201-1.082-0.604-1.46c-0.403-0.378-0.931-0.579-1.586-0.579H154.384z"/>
	<path class="st2" d="M174.02,38.51c0.856,0.503,1.536,1.208,2.014,2.14c0.478,0.931,0.705,2.039,0.705,3.323v1.813
		c0,1.284-0.227,2.392-0.705,3.323c-0.478,0.931-1.158,1.636-2.014,2.14s-1.863,0.755-2.996,0.755s-2.14-0.252-2.996-0.755
		s-1.536-1.208-2.014-2.14c-0.478-0.931-0.73-2.039-0.73-3.323v-1.813c0-1.284,0.252-2.392,0.73-3.323
		c0.478-0.931,1.133-1.636,2.014-2.14c0.856-0.503,1.863-0.755,2.996-0.755S173.164,38.007,174.02,38.51z M168.255,40.675
		c-0.655,0.755-0.982,1.838-0.982,3.273v1.813c0,1.435,0.327,2.543,0.957,3.273c0.629,0.755,1.561,1.133,2.794,1.133
		c1.183,0,2.089-0.378,2.769-1.108c0.655-0.755,0.982-1.838,0.982-3.298v-1.787c0-1.435-0.327-2.543-0.957-3.273
		c-0.629-0.755-1.561-1.133-2.794-1.133C169.841,39.542,168.91,39.92,168.255,40.675z"/>
	<path class="st2" d="M189.553,37.956l-4.859,8.484v5.337h-1.964V46.44l-4.884-8.484h2.266l3.675,6.419h0.076l3.65-6.419H189.553z"
		/>
	<path class="st2" d="M200.403,37.956l-0.252,1.787h-6.822v4.078h6.193v1.787h-6.193v4.38h6.948l0.277,1.787h-9.214V37.956H200.403z
		"/>
	<path class="st2" d="M211.178,38.435c0.806,0.453,1.435,1.082,1.863,1.913s0.655,1.813,0.655,2.92h-1.964
		c0-1.158-0.277-2.089-0.856-2.719c-0.579-0.655-1.41-0.982-2.492-0.982c-1.208,0-2.14,0.378-2.769,1.108
		c-0.629,0.755-0.957,1.838-0.957,3.298v1.813c0,1.435,0.302,2.543,0.931,3.273c0.629,0.755,1.536,1.133,2.744,1.133
		c1.133,0,1.989-0.327,2.593-0.957c0.604-0.655,0.906-1.536,0.906-2.694h1.888c0,1.108-0.227,2.089-0.655,2.895
		c-0.428,0.831-1.057,1.46-1.863,1.888c-0.806,0.453-1.737,0.655-2.82,0.655c-1.787,0-3.172-0.554-4.179-1.636
		c-1.007-1.108-1.51-2.618-1.51-4.557v-1.813c0-1.938,0.503-3.449,1.51-4.557c1.007-1.108,2.392-1.662,4.179-1.662
		C209.415,37.755,210.372,37.982,211.178,38.435z"/>
	<path class="st2" d="M225.905,37.956v1.787h-4.33v12.033h-1.964V39.744h-4.33v-1.787H225.905z"/>
	<path class="st2" d="M236.15,38.51c0.856,0.503,1.536,1.208,2.014,2.14c0.478,0.931,0.705,2.039,0.705,3.323v1.813
		c0,1.284-0.227,2.392-0.705,3.323c-0.478,0.931-1.158,1.636-2.014,2.14s-1.863,0.755-2.996,0.755c-1.133,0-2.14-0.252-2.996-0.755
		s-1.536-1.208-2.014-2.14c-0.478-0.957-0.73-2.064-0.73-3.323v-1.813c0-1.284,0.227-2.392,0.705-3.323
		c0.478-0.931,1.133-1.636,2.014-2.14c0.856-0.503,1.863-0.755,2.996-0.755C234.262,37.755,235.295,38.007,236.15,38.51z
		 M230.386,40.675c-0.655,0.755-0.982,1.838-0.982,3.273v1.813c0,1.435,0.327,2.543,0.957,3.273
		c0.629,0.755,1.561,1.133,2.794,1.133c1.183,0,2.089-0.378,2.769-1.108c0.655-0.755,0.982-1.838,0.982-3.298v-1.787
		c0-1.435-0.327-2.543-0.957-3.273c-0.629-0.755-1.561-1.133-2.794-1.133C231.972,39.542,231.04,39.92,230.386,40.675z"/>
	<path class="st2" d="M243.501,41.481v2.266h-2.039v-2.266H243.501z M243.501,49.537v2.241h-2.039v-2.241H243.501z"/>
</g>
<g>
	<polygon class="st2" points="328.217,115.465 328.217,111.765 331.338,111.387 331.338,93.664 328.242,93.287 328.242,89.586 
		346.216,89.586 346.216,97.491 342.566,97.491 341.912,93.967 336.65,93.967 336.65,100.436 342.566,100.436 342.566,104.615 
		336.65,104.615 336.65,111.387 339.772,111.765 339.772,115.465 	"/>
	<path class="st2" d="M352.963,109.877L352.963,109.877c0.78,1.284,1.913,1.913,3.399,1.913s2.643-0.629,3.399-1.913
		c0.78-1.259,1.158-2.719,1.158-4.33c0-1.636-0.378-3.046-1.158-4.254s-1.913-1.838-3.399-1.838c-1.51,0-2.643,0.604-3.399,1.838
		c-0.78,1.208-1.158,2.643-1.158,4.254C351.805,107.158,352.208,108.593,352.963,109.877 M363.612,113.024
		c-1.913,1.888-4.305,2.845-7.225,2.845s-5.337-0.957-7.225-2.845c-1.913-1.888-2.845-4.38-2.845-7.477
		c0-3.046,0.957-5.513,2.87-7.376s4.33-2.794,7.225-2.794c2.971,0,5.387,0.881,7.275,2.668c1.888,1.787,2.82,4.28,2.82,7.502
		C366.457,108.643,365.525,111.135,363.612,113.024z"/>
	<path class="st2" d="M366.381,115.465v-3.701l3.071-0.378v-11.58l-3.071-0.378v-3.701h7.275l0.504,2.668h0.126
		c0.831-1.032,1.712-1.813,2.643-2.291c0.931-0.503,2.014-0.73,3.298-0.73c0.957,0,1.888,0.201,2.744,0.604v7.301h-3.474
		l-0.428-3.122c-0.201-0.076-0.504-0.126-0.881-0.126c-0.906,0-1.712,0.453-2.392,1.385s-1.007,2.291-1.007,4.103v5.866l3.147,0.378
		v3.701H366.381z"/>
	<path class="st2" d="M395.885,103.281L395.885,103.281c-0.05-2.568-1.057-3.852-3.046-3.852c-0.931,0-1.737,0.327-2.392,0.982
		s-1.082,1.611-1.284,2.87L395.885,103.281z M400.543,114.509c-2.115,0.881-4.254,1.334-6.445,1.334
		c-3.424,0-6.067-0.931-7.955-2.794c-1.888-1.863-2.82-4.229-2.82-7.099c0-3.247,0.881-5.815,2.618-7.729s4.028-2.845,6.873-2.845
		c2.392,0,4.305,0.806,5.765,2.417c1.46,1.611,2.19,3.751,2.19,6.419l-0.151,2.618h-11.731c0.176,1.359,0.806,2.442,1.888,3.323
		c1.082,0.856,2.719,1.284,4.884,1.284c1.41,0,2.769-0.201,4.028-0.604L400.543,114.509z"/>
	<path class="st2" d="M402.557,108.744h3.474l0.378,2.971c0.629,0.176,1.385,0.277,2.291,0.277c2.366,0,3.55-0.604,3.55-1.787
		c0-0.604-0.327-1.082-0.982-1.435c-0.655-0.352-1.46-0.655-2.392-0.906c-0.931-0.252-1.888-0.529-2.82-0.906
		c-0.931-0.352-1.737-0.982-2.392-1.863c-0.655-0.881-0.982-2.039-0.982-3.424c0-1.913,0.755-3.424,2.266-4.557
		c1.51-1.133,3.524-1.712,6.042-1.712c1.989,0,4.028,0.352,6.143,1.032v5.866h-3.474l-0.428-2.82
		c-0.705-0.151-1.284-0.227-1.762-0.227c-1.057,0-1.888,0.201-2.467,0.604c-0.579,0.403-0.881,0.906-0.881,1.586
		c0,0.604,0.327,1.082,0.982,1.435c0.655,0.352,1.46,0.655,2.392,0.881s1.888,0.529,2.82,0.881c0.931,0.352,1.737,0.957,2.392,1.813
		c0.655,0.856,0.982,1.938,0.982,3.247c0,2.115-0.806,3.675-2.417,4.682c-1.611,1.007-3.827,1.51-6.646,1.51
		c-2.341,0-4.355-0.378-6.042-1.108v-6.042H402.557z"/>
	<polygon class="st3" points="328.569,118.587 333.856,118.587 333.856,119.393 329.526,119.393 329.526,123.269 333.579,123.269 
		333.579,124.1 329.526,124.1 329.526,129.261 328.569,129.261 	"/>
	<path class="st3" d="M336.675,128.682L336.675,128.682c1.007,0,1.787-0.856,1.787-3.399c0-2.517-0.755-3.399-1.787-3.399
		c-1.007,0-1.787,0.856-1.787,3.399C334.913,127.851,335.668,128.682,336.675,128.682 M336.675,121.155
		c1.737,0,2.744,1.385,2.744,4.129c0,2.794-0.982,4.154-2.744,4.154c-1.737,0-2.744-1.359-2.744-4.154
		C333.956,122.514,334.938,121.155,336.675,121.155z"/>
	<path class="st3" d="M340.124,121.331h0.906v1.234h0.025c0.352-0.906,1.057-1.41,1.989-1.41c0.101,0,0.201,0.025,0.302,0.05v0.906
		c-0.151-0.025-0.302-0.05-0.428-0.05c-1.007,0-1.913,0.73-1.913,2.266v4.959h-0.881V121.331z"/>
	<path class="st3" d="M343.749,121.331h0.806v1.108h0.025c0.428-0.906,1.108-1.284,2.014-1.284c0.957,0,1.536,0.554,1.661,1.385
		h0.025c0.352-0.906,1.007-1.385,2.014-1.385c1.108,0,1.838,0.604,1.838,2.039v6.067h-0.906v-5.941c0-0.957-0.428-1.435-1.234-1.435
		c-0.906,0-1.611,0.78-1.611,2.039v5.337h-0.906v-5.941c0-0.957-0.428-1.435-1.234-1.435c-0.906,0-1.611,0.78-1.611,2.039v5.337
		h-0.906v-7.93H343.749z"/>
	<path class="st3" d="M356.966,124.78L356.966,124.78h-0.025c-0.101,0.277-0.604,0.428-0.957,0.529l-0.755,0.201
		c-0.906,0.227-1.359,0.68-1.359,1.636c0,0.931,0.478,1.561,1.259,1.561c1.083,0,1.838-0.806,1.838-2.241V124.78z M353.19,123.697
		c0-1.636,0.755-2.543,2.442-2.543c1.636,0,2.241,0.856,2.241,2.115v4.682c0,0.428,0.151,0.655,0.453,0.655h0.252v0.655
		c-0.176,0.05-0.302,0.076-0.428,0.076c-0.705,0-1.158-0.151-1.158-0.982v-0.277l0,0c-0.352,1.057-1.158,1.359-2.039,1.359
		c-1.385,0-2.014-0.881-2.014-2.241c0-1.057,0.453-1.888,1.586-2.19l1.687-0.478c0.655-0.151,0.755-0.352,0.755-1.259
		c0-1.007-0.554-1.385-1.385-1.385c-1.083,0-1.536,0.629-1.536,1.787h-0.856V123.697z"/>
	<path class="st3" d="M360.364,125.309c-1.133-0.428-1.536-1.082-1.536-1.888c0-1.636,1.007-2.291,2.366-2.291
		c1.485,0,2.19,0.755,2.19,2.215v0.227h-0.906v-0.227c0-1.032-0.453-1.46-1.309-1.46c-1.057,0-1.46,0.554-1.46,1.334
		c0,0.554,0.176,0.982,1.082,1.334l1.309,0.503c1.082,0.403,1.485,1.133,1.485,2.014c0,1.359-0.78,2.366-2.442,2.366
		c-1.636,0-2.442-0.68-2.442-2.467v-0.252h0.906v0.201c0,1.183,0.504,1.762,1.536,1.762c0.957,0,1.561-0.529,1.561-1.41
		c0-0.705-0.277-1.158-1.083-1.46L360.364,125.309z"/>
	<polygon class="st3" points="375.771,118.587 381.058,118.587 381.058,119.393 376.728,119.393 376.728,123.269 380.781,123.269 
		380.781,124.1 376.728,124.1 376.728,128.455 381.209,128.455 381.209,129.261 375.771,129.261 	"/>
	<path class="st3" d="M383.097,125.309c-1.133-0.428-1.536-1.082-1.536-1.888c0-1.636,1.007-2.291,2.366-2.291
		c1.485,0,2.19,0.755,2.19,2.215v0.227h-0.906v-0.227c0-1.032-0.453-1.46-1.309-1.46c-1.057,0-1.46,0.554-1.46,1.334
		c0,0.554,0.176,0.982,1.083,1.334l1.309,0.503c1.082,0.403,1.485,1.133,1.485,2.014c0,1.359-0.78,2.366-2.442,2.366
		c-1.636,0-2.442-0.68-2.442-2.467v-0.252h0.906v0.201c0,1.183,0.503,1.762,1.536,1.762c0.957,0,1.561-0.529,1.561-1.41
		c0-0.705-0.277-1.158-1.082-1.46L383.097,125.309z"/>
	<path class="st3" d="M389.642,121.885L389.642,121.885c-0.529,0-0.957,0.277-1.259,0.705c-0.403,0.554-0.503,1.334-0.503,2.694
		c0,2.92,0.831,3.399,1.737,3.399s1.737-0.453,1.737-3.399C391.329,122.414,390.523,121.885,389.642,121.885 M386.974,121.331h0.806
		v1.133h0.025c0.277-0.73,0.931-1.309,1.964-1.309c1.787,0,2.517,1.385,2.517,4.154c0,2.744-0.78,4.129-2.543,4.129
		c-1.007,0-1.661-0.529-1.863-1.385h-0.025v3.827h-0.906v-10.548H386.974z"/>
	<path class="st3" d="M396.716,124.78L396.716,124.78h-0.025c-0.101,0.277-0.604,0.428-0.957,0.529l-0.755,0.201
		c-0.906,0.227-1.359,0.68-1.359,1.636c0,0.931,0.478,1.561,1.259,1.561c1.082,0,1.838-0.806,1.838-2.241V124.78z M392.94,123.697
		c0-1.636,0.755-2.543,2.442-2.543c1.636,0,2.241,0.856,2.241,2.115v4.682c0,0.428,0.151,0.655,0.453,0.655h0.252v0.655
		c-0.151,0.05-0.302,0.076-0.428,0.076c-0.705,0-1.158-0.151-1.158-0.982v-0.277h-0.025c-0.352,1.057-1.158,1.359-2.039,1.359
		c-1.385,0-2.014-0.881-2.014-2.241c0-1.057,0.453-1.888,1.586-2.19l1.687-0.478c0.655-0.151,0.755-0.352,0.755-1.259
		c0-1.007-0.554-1.385-1.385-1.385c-1.082,0-1.536,0.629-1.536,1.787h-0.831V123.697z"/>
	<path class="st3" d="M403.639,126.618c-0.126,1.687-1.057,2.82-2.517,2.82c-1.687,0-2.668-1.158-2.668-4.154
		c0-2.769,0.982-4.129,2.744-4.129c1.485,0,2.341,0.906,2.442,2.543h-0.906c-0.101-1.259-0.604-1.787-1.561-1.787
		c-0.982,0-1.787,0.604-1.787,3.399c0,2.996,0.856,3.399,1.687,3.399c0.906,0,1.485-0.68,1.636-2.064h0.931V126.618z"/>
	<path class="st3" d="M404.394,121.331L404.394,121.331h0.906v7.93h-0.906V121.331z M404.394,118.587h0.906v1.536h-0.906V118.587z"
		/>
	<path class="st3" d="M408.8,128.682L408.8,128.682c1.007,0,1.787-0.856,1.787-3.399c0-2.517-0.755-3.399-1.787-3.399
		c-1.007,0-1.787,0.856-1.787,3.399C407.038,127.851,407.793,128.682,408.8,128.682 M408.8,121.155c1.737,0,2.744,1.385,2.744,4.129
		c0,2.794-0.982,4.154-2.744,4.154c-1.737,0-2.744-1.359-2.744-4.154C406.081,122.514,407.063,121.155,408.8,121.155z"/>
	<path class="st3" d="M413.507,125.309c-1.133-0.428-1.536-1.082-1.536-1.888c0-1.636,1.007-2.291,2.366-2.291
		c1.485,0,2.19,0.755,2.19,2.215v0.227h-0.881v-0.227c0-1.032-0.453-1.46-1.309-1.46c-1.057,0-1.46,0.554-1.46,1.334
		c0,0.554,0.176,0.982,1.083,1.334l1.309,0.503c1.082,0.403,1.485,1.133,1.485,2.014c0,1.359-0.78,2.366-2.442,2.366
		c-1.636,0-2.442-0.68-2.442-2.467v-0.252h0.906v0.201c0,1.183,0.503,1.762,1.536,1.762c0.957,0,1.561-0.529,1.561-1.41
		c0-0.705-0.277-1.158-1.083-1.46L413.507,125.309z"/>
	<polygon class="st3" points="290.279,110.204 279.328,115.289 289.927,133.541 300.701,114.962 	"/>
	<polygon class="st3" points="304.502,108.366 307.624,102.979 290.279,95.049 272.305,103.18 275.527,108.744 290.279,101.922 	"/>
	<path class="st2" d="M311.451,96.383l7.703-13.317c0,0-58.858-0.227-58.48,0.151l7.754,13.342l21.826-9.793L311.451,96.383z"/>
	<polygon class="st3" points="366.532,124.05 368.622,124.05 368.622,121.96 370.434,121.96 370.434,124.05 372.524,124.05 
		372.524,125.862 370.434,125.862 370.434,127.952 368.622,127.952 368.622,125.862 366.532,125.862 	"/>
</g>
</svg>
